<svg width="259" height="41" viewBox="0 0 259 41" fill="none" xmlns="http://www.w3.org/2000/svg">
<mask id="mask0_71_395" style="mask-type:luminance" maskUnits="userSpaceOnUse" x="0" y="0" width="184" height="41">
<path d="M184 0H0V41H184V0Z" fill="white"/>
</mask>
<g mask="url(#mask0_71_395)">
<path d="M0.0078125 1.44922H16.0996C17.5176 1.44922 18.7995 1.78581 19.9453 2.45898C21.0911 3.13216 22.0007 4.03451 22.6738 5.16602C23.3613 6.29753 23.7051 7.5651 23.7051 8.96875V10.9668C23.7051 12.9577 23.1322 14.4688 21.9863 15.5C23.0033 16.1589 23.7409 16.9466 24.1992 17.8633C24.6576 18.7656 24.8867 19.8971 24.8867 21.2578V24.6309C24.8867 25.9772 24.543 27.209 23.8555 28.3262C23.1823 29.4434 22.2728 30.3385 21.127 31.0117C19.9811 31.6706 18.7135 32 17.3242 32H0.0078125V1.44922ZM17.3672 27.4668C18.1979 27.4668 18.9069 27.1875 19.4941 26.6289C20.0814 26.056 20.375 25.3685 20.375 24.5664V21.1934C20.375 20.3913 20.0814 19.7038 19.4941 19.1309C18.9069 18.5579 18.1908 18.2715 17.3457 18.2715H7.11914V13.7598H16.0996C16.9447 13.7598 17.668 13.4876 18.2695 12.9434C18.8854 12.3848 19.1934 11.7116 19.1934 10.9238V8.96875C19.1934 8.13802 18.8854 7.42904 18.2695 6.8418C17.668 6.25456 16.9447 5.96094 16.0996 5.96094H4.54102V27.4668H17.3672Z" fill="black"/>
<path d="M29.6133 17.7344C29.6133 16.2591 29.9714 14.9199 30.6875 13.7168C31.418 12.5137 32.3919 11.554 33.6094 10.8379C34.8268 10.1074 36.1732 9.74219 37.6484 9.74219H50.0664V32H45.5332V14.2754H37.6484C36.6888 14.2754 35.8652 14.6191 35.1777 15.3066C34.4902 15.9798 34.1465 16.8034 34.1465 17.7773V23.9219C34.1465 24.8958 34.4902 25.7337 35.1777 26.4355C35.8652 27.123 36.6888 27.4668 37.6484 27.4668H42.9551V32H37.6484C36.1732 32 34.8268 31.6419 33.6094 30.9258C32.3919 30.1953 31.418 29.2214 30.6875 28.0039C29.9714 26.7865 29.6133 25.4401 29.6133 23.9648V17.7344Z" fill="black"/>
<path d="M55.2227 1.44922H59.7559V32H55.2227V1.44922Z" fill="black"/>
<path d="M64.9336 1.44922H69.4668V32H64.9336V1.44922Z" fill="black"/>
<path d="M74.4297 17.7773C74.4297 16.3021 74.7878 14.9557 75.5039 13.7383C76.2344 12.5208 77.2083 11.554 78.4258 10.8379C79.6432 10.1074 80.9896 9.74219 82.4648 9.74219H87.3203C88.7956 9.74219 90.1419 10.1074 91.3594 10.8379C92.5768 11.554 93.5436 12.5208 94.2598 13.7383C94.9902 14.9557 95.3555 16.3021 95.3555 17.7773V23.9648C95.3555 25.4401 94.9902 26.7865 94.2598 28.0039C93.5436 29.2214 92.5768 30.1953 91.3594 30.9258C90.1419 31.6419 88.7956 32 87.3203 32H82.4648C80.9896 32 79.6432 31.6419 78.4258 30.9258C77.2083 30.1953 76.2344 29.2214 75.5039 28.0039C74.7878 26.7865 74.4297 25.4401 74.4297 23.9648V17.7773ZM78.9629 23.9219C78.9629 24.8958 79.3066 25.7337 79.9941 26.4355C80.6816 27.123 81.5052 27.4668 82.4648 27.4668H87.3203C88.2943 27.4668 89.1178 27.123 89.791 26.4355C90.4785 25.7337 90.8223 24.8958 90.8223 23.9219V17.8203C90.8223 16.8464 90.4785 16.0156 89.791 15.3281C89.1178 14.6263 88.2943 14.2754 87.3203 14.2754H82.4648C81.5052 14.2754 80.6816 14.6263 79.9941 15.3281C79.3066 16.0156 78.9629 16.8464 78.9629 17.8203V23.9219Z" fill="black"/>
<path d="M99.2227 9.74219H102.123V1.44922H106.656V9.74219H113.51V14.2754H106.656V25.6836C106.656 26.1706 106.842 26.5931 107.215 26.9512C107.602 27.2949 108.06 27.4668 108.59 27.4668H113.51V32H108.525C107.351 32 106.277 31.7207 105.303 31.1621C104.343 30.5892 103.57 29.8301 102.982 28.8848C102.41 27.9251 102.123 26.8652 102.123 25.7051V14.2754H99.2227V9.74219Z" fill="black"/>
<path d="M117.098 3.68359C117.098 2.91016 117.37 2.2513 117.914 1.70703C118.458 1.16276 119.117 0.890625 119.891 0.890625C120.664 0.890625 121.323 1.16276 121.867 1.70703C122.411 2.2513 122.684 2.91016 122.684 3.68359C122.684 4.45703 122.411 5.11589 121.867 5.66016C121.323 6.20443 120.664 6.47656 119.891 6.47656C119.117 6.47656 118.458 6.20443 117.914 5.66016C117.37 5.11589 117.098 4.45703 117.098 3.68359ZM117.613 9.74219H122.168V32H117.613V9.74219Z" fill="black"/>
<path d="M127.324 14.2539C127.324 13.0078 127.768 11.9479 128.656 11.0742C129.559 10.1862 130.64 9.74219 131.9 9.74219H139.742C141.217 9.74219 142.564 10.1074 143.781 10.8379C144.999 11.554 145.965 12.5208 146.682 13.7383C147.412 14.9557 147.777 16.3021 147.777 17.7773V32H143.244V17.8418C143.244 16.8392 142.9 15.987 142.213 15.2852C141.54 14.5833 140.716 14.2324 139.742 14.2324H131.857V32H127.324V14.2539Z" fill="black"/>
<path d="M152.719 17.7344C152.719 16.2591 153.077 14.9199 153.793 13.7168C154.523 12.5137 155.497 11.554 156.715 10.8379C157.932 10.1074 159.279 9.74219 160.754 9.74219H168.639C169.885 9.74219 170.952 10.1862 171.84 11.0742C172.728 11.9622 173.172 13.0293 173.172 14.2754V32.2578C173.172 33.7331 172.807 35.0794 172.076 36.2969C171.36 37.5143 170.393 38.4811 169.176 39.1973C167.958 39.9277 166.612 40.293 165.137 40.293H154.158V35.7598H165.072C166.061 35.7598 166.898 35.416 167.586 34.7285C168.288 34.0553 168.639 33.2389 168.639 32.2793V14.2754H160.754C159.794 14.2754 158.971 14.6191 158.283 15.3066C157.596 15.9798 157.252 16.8034 157.252 17.7773V23.9434C157.252 24.903 157.596 25.7337 158.283 26.4355C158.971 27.123 159.794 27.4668 160.754 27.4668H166.061V32H160.754C159.279 32 157.932 31.6419 156.715 30.9258C155.497 30.1953 154.523 29.2285 153.793 28.0254C153.077 26.8079 152.719 25.4616 152.719 23.9863V17.7344Z" fill="black"/>
<path d="M178.221 29.4219C178.221 28.6484 178.493 27.9896 179.037 27.4453C179.581 26.901 180.24 26.6289 181.014 26.6289C181.801 26.6289 182.46 26.901 182.99 27.4453C183.535 27.9753 183.807 28.6341 183.807 29.4219C183.807 30.2096 183.535 30.8757 182.99 31.4199C182.46 31.9499 181.801 32.2148 181.014 32.2148C180.24 32.2148 179.581 31.9427 179.037 31.3984C178.493 30.8542 178.221 30.1953 178.221 29.4219Z" fill="black"/>
</g>
<mask id="mask1_71_395" style="mask-type:luminance" maskUnits="userSpaceOnUse" x="191" y="1" width="68" height="31">
<path d="M259 1H191V32H259V1Z" fill="white"/>
</mask>
<g mask="url(#mask1_71_395)">
<path d="M191.008 1.44922H196.895L210.193 25.4473V1.44922H214.727V32H208.84L195.541 8.32422V32H191.008V1.44922Z" fill="#FF0202"/>
<path d="M220.312 14.3398C220.312 13.0651 220.778 11.9837 221.709 11.0957C222.64 10.1934 223.757 9.74219 225.061 9.74219H234.342C235.531 9.74219 236.605 10.0358 237.564 10.623C238.538 11.196 239.312 11.9766 239.885 12.9648C240.472 13.9388 240.766 15.0202 240.766 16.209V16.832C240.766 18.0065 240.472 19.0807 239.885 20.0547C239.312 21.0143 238.538 21.7878 237.564 22.375C236.605 22.9479 235.531 23.2344 234.342 23.2344H227.424V18.7227H234.385C234.9 18.7227 235.337 18.5365 235.695 18.1641C236.068 17.7917 236.254 17.3405 236.254 16.8105V16.209C236.254 15.6647 236.068 15.2064 235.695 14.834C235.337 14.4616 234.9 14.2754 234.385 14.2754H224.846V25.7051C224.846 26.1921 225.01 26.6074 225.34 26.9512C225.669 27.2949 226.07 27.4668 226.543 27.4668H239.197V32H226.543C225.397 32 224.352 31.7207 223.406 31.1621C222.461 30.5892 221.709 29.8301 221.15 28.8848C220.592 27.9251 220.312 26.8724 220.312 25.7266V14.3398Z" fill="#FF0202"/>
<path d="M244.633 9.74219H247.533V1.44922H252.066V9.74219H258.92V14.2754H252.066V25.6836C252.066 26.1706 252.253 26.5931 252.625 26.9512C253.012 27.2949 253.47 27.4668 254 27.4668H258.92V32H253.936C252.761 32 251.687 31.7207 250.713 31.1621C249.753 30.5892 248.98 29.8301 248.393 28.8848C247.82 27.9251 247.533 26.8652 247.533 25.7051V14.2754H244.633V9.74219Z" fill="#FF0202"/>
</g>
</svg>
