<svg width="68" height="31" viewBox="0 0 68 31" fill="none" xmlns="http://www.w3.org/2000/svg">
<path d="M0.0078125 0.449219H5.89453L19.1934 24.4473V0.449219H23.7266V31H17.8398L4.54102 7.32422V31H0.0078125V0.449219Z" fill="#FF0202"/>
<path d="M29.3125 13.3398C29.3125 12.0651 29.778 10.9837 30.709 10.0957C31.64 9.19336 32.7572 8.74219 34.0605 8.74219H43.3418C44.5306 8.74219 45.6048 9.03581 46.5645 9.62305C47.5384 10.196 48.3118 10.9766 48.8848 11.9648C49.472 12.9388 49.7656 14.0202 49.7656 15.209V15.832C49.7656 17.0065 49.472 18.0807 48.8848 19.0547C48.3118 20.0143 47.5384 20.7878 46.5645 21.375C45.6048 21.9479 44.5306 22.2344 43.3418 22.2344H36.4238V17.7227H43.3848C43.9004 17.7227 44.3372 17.5365 44.6953 17.1641C45.0677 16.7917 45.2539 16.3405 45.2539 15.8105V15.209C45.2539 14.6647 45.0677 14.2064 44.6953 13.834C44.3372 13.4616 43.9004 13.2754 43.3848 13.2754H33.8457V24.7051C33.8457 25.1921 34.0104 25.6074 34.3398 25.9512C34.6693 26.2949 35.0703 26.4668 35.543 26.4668H48.1973V31H35.543C34.3971 31 33.3516 30.7207 32.4062 30.1621C31.4609 29.5892 30.709 28.8301 30.1504 27.8848C29.5918 26.9251 29.3125 25.8724 29.3125 24.7266V13.3398Z" fill="#FF0202"/>
<path d="M53.6328 8.74219H56.5332V0.449219H61.0664V8.74219H67.9199V13.2754H61.0664V24.6836C61.0664 25.1706 61.2526 25.5931 61.625 25.9512C62.0117 26.2949 62.4701 26.4668 63 26.4668H67.9199V31H62.9355C61.7611 31 60.6868 30.7207 59.7129 30.1621C58.7533 29.5892 57.9798 28.8301 57.3926 27.8848C56.8197 26.9251 56.5332 25.8652 56.5332 24.7051V13.2754H53.6328V8.74219Z" fill="#FF0202"/>
</svg>
